# xmcd
#
# Track frame offsets:
#	150
#	10367
#	23870
#	37589
#	47876
#	56833
#	72288
#	84349
#	96723
#	116802
#	126078
#	135141
#	146461
#	159477
#	173891
#	196734
#	208473
#	217941
#	233808
#	246134
#	254120
#
# Disc length: 3597 seconds
#
# Revision: 2
# Processed by: cddbd v1.5.2PL0 Copyright (c) Steve Scherf et al.
# Submitted via: audiograbber 1.83.01
#
DISCID=2f0e0b15
DTITLE=Сергей Арно - Лучшие песни - 2011
DYEAR=2011
DGENRE=Blues
TTITLE0=Капризы
TTITLE1=Девочка из фарфора (ст. К. Бачинского)
TTITLE2=Синяя бухта
TTITLE3=Убивали любовь (ст. Ю.Воронина)
TTITLE4=Вот пройдёт любовь
TTITLE5=Метро
TTITLE6=Что же сказать о своей же судьбе
TTITLE7=Как только наскребёшь на красоту
TTITLE8=Камчатка
TTITLE9=Влади-Владивосток
TTITLE10=Жизнь такова (ст. В. Кострова)
TTITLE11=По крышам Петропавловской
TTITLE12=Вокруг света на гитаре
TTITLE13=Форт Ли
TTITLE14=Свидания у метро
TTITLE15=Не говорите о любви
TTITLE16=Поиграл с тобою в жизнь
TTITLE17=Про детство
TTITLE18=Приезжай, я тебя встречу
TTITLE19=Зарисовки с выставки
TTITLE20=Обожаю
EXTD=
EXTT0=
EXTT1=
EXTT2=
EXTT3=
EXTT4=
EXTT5=
EXTT6=
EXTT7=
EXTT8=
EXTT9=
EXTT10=
EXTT11=
EXTT12=
EXTT13=
EXTT14=
EXTT15=
EXTT16=
EXTT17=
EXTT18=
EXTT19=
EXTT20=
PLAYORDER=
